<svg xmlns="http://www.w3.org/2000/svg" viewBox="0 0 549.474363 902.661866" role="img" aria-label="Micheal Sihavong" preserveAspectRatio="xMidYMid meet">
<g transform="translate(-24.161215,903.661866) scale(0.100000,-0.100000)"
fill="currentColor" stroke="none">
<path d="M3282 9030 c-28 -12 -22 -25 14 -34 43 -11 173 -104 253 -180 97 -94
220 -276 186 -276 -3 0 -60 31 -128 70 -154 88 -261 124 -457 155 -201 32
-261 31 -487 -6 -179 -29 -201 -35 -463 -130 -151 -55 -335 -117 -409 -138
-74 -21 -137 -43 -139 -49 -5 -16 94 -70 155 -83 29 -7 54 -18 57 -25 6 -15
-10 -24 -254 -155 -255 -136 -508 -319 -666 -480 -183 -189 -281 -346 -344
-554 -23 -78 -30 -119 -30 -187 0 -61 4 -88 12 -88 6 0 45 33 87 73 56 54 76
68 79 55 2 -9 -13 -90 -32 -180 -32 -144 -37 -187 -43 -373 -8 -197 -6 -223
19 -415 30 -226 64 -379 115 -515 41 -111 41 -126 3 -148 -90 -53 -149 -189
-157 -359 -5 -97 -3 -119 27 -238 27 -108 45 -154 97 -253 55 -103 79 -136
155 -213 122 -124 219 -179 332 -188 44 -3 81 -7 82 -9 2 -2 15 -55 28 -118
14 -63 44 -175 66 -248 110 -357 246 -581 502 -821 159 -150 288 -245 503
-372 l160 -95 -1 -159 c0 -87 -4 -184 -8 -215 l-7 -55 -81 -30 -81 -29 -178
-214 -178 -215 -478 -196 c-525 -216 -657 -278 -807 -380 -183 -123 -289 -259
-398 -505 -58 -129 -84 -210 -137 -408 l-9 -37 38 0 38 0 26 108 c33 135 135
383 199 487 61 98 188 230 282 295 39 26 118 71 175 101 156 79 1042 446 1065
441 13 -2 50 -53 109 -150 53 -87 165 -245 274 -385 159 -203 189 -237 211
-237 20 0 66 35 187 143 167 149 314 254 335 241 49 -30 214 -164 317 -257 68
-62 136 -117 150 -124 26 -11 30 -8 91 59 99 108 230 282 382 511 77 114 143
207 148 207 6 0 197 -79 425 -175 l416 -175 87 0 c79 1 85 2 63 14 -14 7 -243
104 -510 216 l-486 202 -179 213 -180 213 -86 32 -87 32 -12 112 c-6 61 -10
160 -8 220 l3 109 140 87 c77 47 194 127 260 177 143 109 376 343 462 463 135
192 258 478 323 755 17 72 33 138 36 148 4 13 16 17 53 17 67 0 158 26 219 63
30 18 92 71 139 119 117 119 198 257 253 433 37 121 40 137 40 250 0 107 -3
130 -31 212 -29 87 -35 96 -92 148 l-62 55 77 232 c56 169 87 283 113 413 32
165 35 195 35 360 -1 170 -3 188 -35 320 -18 77 -30 143 -26 148 4 4 26 -9 48
-28 66 -56 75 -50 67 48 -9 116 -80 331 -157 477 -89 168 -297 443 -422 558
-167 152 -384 260 -534 263 -25 1 -57 4 -70 8 -24 6 -24 7 13 39 66 58 193
112 264 112 18 0 42 5 54 11 20 11 20 11 -3 35 -12 13 -52 38 -88 55 -56 27
-80 33 -161 37 -121 5 -185 -11 -278 -71 l-71 -46 -16 57 c-9 31 -19 66 -22
77 -12 43 -58 123 -103 180 -71 89 -152 155 -280 227 -92 51 -139 70 -235 95
-128 33 -302 50 -343 33z m546 -1942 c32 -71 45 -78 178 -89 155 -12 244 -37
346 -98 216 -128 337 -350 368 -676 19 -200 39 -260 135 -410 139 -215 165
-293 165 -489 0 -92 -8 -174 -30 -308 -24 -143 -27 -184 -18 -190 24 -15 61
-21 76 -12 8 5 47 104 87 219 l72 210 48 35 c61 43 124 54 175 29 44 -21 61
-41 93 -104 38 -78 50 -152 42 -273 -15 -220 -123 -446 -287 -601 -96 -91
-169 -131 -250 -139 l-58 -5 0 34 c1 19 7 60 14 91 8 31 11 59 8 62 -13 14
-61 5 -66 -11 -3 -10 -30 -122 -60 -248 -81 -339 -156 -547 -265 -739 -140
-246 -254 -369 -544 -587 -143 -109 -240 -173 -352 -234 -241 -131 -365 -162
-603 -151 -192 9 -328 50 -533 162 -332 180 -623 426 -803 679 -155 217 -233
418 -344 885 -54 225 -60 245 -81 248 -48 7 -51 0 -32 -85 10 -43 16 -84 14
-90 -6 -17 -103 -17 -140 -1 -82 35 -195 133 -270 233 -59 80 -116 200 -149
320 -60 215 -43 416 44 507 65 68 144 78 218 25 41 -29 45 -37 74 -131 17 -56
52 -154 78 -219 l47 -118 45 3 45 3 3 46 c2 25 -9 97 -24 160 -21 92 -27 148
-31 289 -6 218 4 263 113 505 68 151 78 181 89 269 8 59 19 102 27 107 7 5 40
9 74 9 107 0 308 45 491 109 341 119 571 259 844 513 65 59 120 108 123 108
21 0 -27 -113 -138 -319 -78 -147 -100 -217 -94 -300 5 -69 40 -131 88 -156
l30 -15 -6 58 c-5 43 -2 66 9 88 23 43 91 104 187 164 235 149 471 365 620
567 41 56 78 102 82 103 4 0 16 -19 26 -42z m-198 -4714 c0 -141 47 -467 85
-595 7 -22 -152 -203 -369 -419 l-186 -185 -186 185 c-102 102 -226 234 -277
294 l-91 109 22 86 c17 68 42 248 42 301 0 14 47 12 110 -5 194 -52 535 36
770 199 73 50 80 53 80 30z m-1060 -463 c0 -40 -13 -61 -36 -61 -32 0 -36 -11
-19 -62 23 -67 153 -219 381 -448 112 -113 204 -213 204 -222 0 -10 -31 -38
-77 -69 -64 -43 -173 -133 -330 -272 -32 -28 -50 -14 -164 136 -93 120 -399
568 -399 583 0 3 42 54 93 112 51 59 110 132 132 162 57 82 105 130 149 150
43 20 66 17 66 -9z m1299 -15 c22 -16 324 -399 324 -411 0 -12 -379 -557 -446
-640 -23 -29 -54 -60 -70 -70 l-27 -16 -133 117 c-72 64 -165 140 -204 167
-40 28 -76 60 -79 70 -5 15 37 62 188 215 184 186 332 357 379 436 25 43 22
80 -7 84 -37 5 -59 77 -26 84 17 4 74 -17 101 -36z"/>
<path d="M2085 5600 c-134 -29 -233 -88 -271 -161 -29 -57 -24 -59 104 -29
227 53 428 43 629 -33 l91 -34 20 26 c10 14 25 43 32 65 12 37 11 39 -16 61
-44 35 -198 91 -299 109 -112 20 -188 19 -290 -4z"/>
<path d="M3875 5601 c-109 -21 -192 -51 -252 -92 -41 -28 -44 -33 -37 -62 6
-30 22 -65 42 -95 6 -9 30 -4 103 22 52 19 147 44 211 55 103 19 133 20 235
12 69 -6 153 -20 203 -35 47 -14 88 -22 93 -17 14 14 -18 69 -63 108 -59 51
-150 90 -252 108 -103 18 -167 17 -283 -4z"/>
<path d="M2236 5100 c-102 -90 -82 -308 32 -356 33 -14 40 -13 73 2 50 22 89
111 89 199 -1 148 -106 232 -194 155z"/>
<path d="M3907 5097 c-43 -46 -57 -87 -57 -166 0 -205 171 -274 237 -96 26 72
28 126 8 187 -21 60 -59 94 -114 101 -40 5 -47 3 -74 -26z"/>
<path d="M3050 4971 c-7 -14 -4 -57 9 -153 11 -73 29 -294 42 -492 l22 -358
-24 -19 c-15 -11 -45 -19 -78 -21 -38 -2 -57 -8 -65 -20 -19 -31 7 -43 87 -40
69 3 73 4 110 42 36 38 37 42 37 112 0 104 -48 769 -61 853 -16 101 -52 145
-79 96z"/>
<path d="M3510 3413 c-111 -43 -243 -63 -413 -63 -149 0 -154 1 -276 40 -92
29 -129 36 -143 29 -45 -24 6 -66 133 -106 75 -24 103 -27 272 -31 115 -2 214
1 255 7 84 15 251 69 275 89 21 19 22 48 1 56 -23 9 -33 7 -104 -21z"/>
</g>
</svg>
