<?xml version="1.0" encoding="utf-8"?>
<!-- Generator: Adobe Illustrator 27.1.1, SVG Export Plug-In . SVG Version: 6.00 Build 0)  -->
<svg version="1.1" id="Layer_1" xmlns="http://www.w3.org/2000/svg" xmlns:xlink="http://www.w3.org/1999/xlink" x="0px" y="0px"
	 viewBox="0 0 1086 995" style="enable-background:new 0 0 1086 995;" xml:space="preserve">
<style type="text/css">
	.st0{fill:#1565C0;}
</style>
<path class="st0" d="M1052,545.5c-27.9-37.1-123.8-87.9-123.8-87.9c41.5-3.3,87.8-18,87.8-18c41.8-14.3,43.4-35.2,43.4-35.2
	c2.9-22.3-37.7-40.5-37.7-40.5C977.1,340.2,887.2,327,887.2,327c38.2-20.9,61.5-40.2,61.5-40.2c38.7-33.9,28.1-50.4,28.1-50.4
	c-5.5-20.1-47.6-24.6-47.6-24.6c-38.6-5.2-102.2,5.7-102.2,5.7c24.4-31.1,33.1-59.9,33.1-59.9c6.6-23.1-2.3-34.1-2.3-34.1
	c-10.5-18-47.7-10.1-47.7-10.1c-54.7,12.8-92.4,38.1-92.4,38.1c6.9-24.7,5.8-60.7,5.8-60.7c-1.5-13.7-4.6-31.7-16.5-40.5
	c-15.4-11.3-37.1-2.1-51.5,6.8c-14.4,9-26.6,21.4-37.8,33.9c-2,2.2-12.4,11.9-12,14.2c-3.7-13.3-8.2-26.3-13.4-39.1
	c-7.8-19.1-27.3-42.3-49.4-43.4l0,0c0,0,0,0,0,0c0,0,0,0,0,0l0,0c-22.2,1.1-41.6,24.3-49.4,43.4c-5.2,12.8-9.7,25.8-13.4,39.1
	c0.5-2.3-10-12-12-14.2c-11.2-12.5-23.4-25-37.8-33.9c-14.3-8.9-36-18.2-51.5-6.8c-11.9,8.7-14.9,26.8-16.5,40.5
	c0,0-1.1,36,5.8,60.7c0,0-37.7-25.2-92.4-38.1c0,0-37.2-7.8-47.7,10.1c0,0-8.9,11-2.3,34.1c0,0,8.7,28.8,33.1,59.9
	c0,0-63.6-11-102.2-5.7c0,0-42.1,4.5-47.6,24.6c0,0-10.5,16.5,28.1,50.4c0,0,23.3,19.3,61.6,40.2c0,0-89.8,13.2-134.6,36.9
	c0,0-40.6,18.3-37.7,40.5c0,0,1.6,20.9,43.4,35.2c0,0,46.3,14.7,87.8,18c0,0-95.9,50.8-123.8,87.9c0,0-22.5,22.4-16.8,42.9
	c0,0,4.9,25.9,73.1,21.2c0,0,53.1-3.3,117.7-22.2c-0.3,0.1-0.4,0.1-0.4,0.1s-64,72.5-82.5,111.3c0,0-41.6,65.7-16.6,91.3
	c0,0,11.6,15.2,56.9,1.3c0,0,64.3-21.8,132.6-77.2c0,0-28.5,79.2-31.5,141c0,0-6.2,60.5,25,73c0,0,26.2,13,75.8-38.2
	c0,0,59.8-65.2,94-131.3c4.2,36.7,10.1,73.7,19.5,109.4c5.9,22.5,13.1,44.7,23.4,65.5c7.6,15.5,19.4,37.3,39.1,38.4l0,0c0,0,0,0,0,0
	c0,0,0,0,0,0l0,0c19.7-1.1,31.4-22.9,39.1-38.4c10.2-20.9,17.5-43.1,23.3-65.5c9.4-35.7,15.3-72.7,19.5-109.4
	c34.2,66.1,94,131.3,94,131.3c49.6,51.3,75.8,38.2,75.8,38.2c31.2-12.5,25-73,25-73c-3-61.8-31.5-141-31.5-141
	c68.2,55.3,132.5,77.2,132.5,77.2c45.3,14,56.9-1.3,56.9-1.3c25-25.6-16.6-91.3-16.6-91.3c-18.5-38.8-82.5-111.3-82.5-111.3
	s-0.2,0-0.4-0.1c64.6,19,117.7,22.2,117.7,22.2c68.2,4.7,73.1-21.2,73.1-21.2C1074.5,567.8,1052,545.5,1052,545.5L1052,545.5z
	 M940.3,537.2c0,0-10.2,38.8-158.8-5c0,0-83.8-26.2-120.2-47.2c0,0,76.7,130,84.1,233.8c0,0,4.9,50.8-19.1,60.1
	c0,0-26.6,11.7-80.4-56.1c0,0-64.7-78.4-102.6-194.8c-37.9,116.4-102.6,194.8-102.6,194.8c-53.8,67.8-80.4,56.1-80.4,56.1
	c-24-9.3-19.1-60.1-19.1-60.1c7.4-103.9,84.1-233.8,84.1-233.8c-36.4,21-120.2,47.2-120.2,47.2c-148.6,43.8-158.8,5-158.8,5
	c-11.9-31.8,73.9-82.1,73.9-82.1c65.2-42.8,165.2-73.9,165.2-73.9C269,347.9,226,307.9,226,307.9c-36-30.3-24.2-44.6-24.2-44.6
	C220,232.7,321.9,252,321.9,252c75.3,14.1,116,34,116,34c-31.5-58.1-38.6-108.2-38.6-108.2c-10.1-63.5,17.5-69,17.5-69
	c20.3-7,49.8,21.6,49.8,21.6c57.2,58.8,76.7,117.5,76.7,117.5v0v0c0,0,19.5-58.7,76.7-117.5c0,0,29.5-28.6,49.8-21.6
	c0,0,27.6,5.5,17.5,69c0,0-7.2,50.1-38.6,108.2c0,0,40.8-19.9,116-34.1c0,0,102-19.3,120.2,11.3c0,0,11.8,14.2-24.2,44.6
	c0,0-43,39.9-159.4,73.3c0,0,100,31.1,165.2,73.9C866.4,455.1,952.2,505.4,940.3,537.2L940.3,537.2z"/>
</svg>
