<svg xmlns="http://www.w3.org/2000/svg" xmlns:xlink="http://www.w3.org/1999/xlink" version="1.1" width="256" height="54" viewBox="0 101 256 54" xml:space="preserve">
<g style="stroke: none; stroke-width: 0; stroke-dasharray: none; stroke-linecap: butt; stroke-linejoin: miter; stroke-miterlimit: 10; fill: none; fill-rule: nonzero; opacity: 1;" transform="translate(1.4065934065934016 1.4065934065934016) scale(2.81 2.81)">
	<path d="M 19.587 35.932 c -2.238 0 -3.987 1.686 -5.571 3.827 c -2.176 -2.771 -3.996 -3.827 -6.174 -3.827 C 3.402 35.932 0 41.71 0 47.827 c 0 3.827 1.852 6.241 4.953 6.241 c 2.232 0 3.838 -1.052 6.692 -6.041 c 0 0 1.19 -2.101 2.008 -3.548 c 0.287 0.463 0.589 0.962 0.906 1.497 l 1.338 2.251 c 2.607 4.363 4.06 5.841 6.692 5.841 c 3.022 0 4.703 -2.447 4.703 -6.354 C 27.292 41.31 23.813 35.932 19.587 35.932 z M 9.469 46.676 c -2.314 3.627 -3.114 4.44 -4.403 4.44 c -1.326 0 -2.114 -1.164 -2.114 -3.24 c 0 -4.44 2.214 -8.981 4.853 -8.981 c 1.429 0 2.623 0.825 4.453 3.444 C 10.521 45.005 9.469 46.676 9.469 46.676 z M 22.652 51.116 c -1.318 0 -1.948 -0.87 -4.45 -4.897 l -1.6 -2.669 c -0.433 -0.704 -0.849 -1.353 -1.248 -1.945 c 1.442 -2.226 2.632 -3.335 4.047 -3.335 c 2.939 0 5.291 4.328 5.291 9.644 C 24.691 49.941 24.027 51.116 22.652 51.116 z" style="stroke: none; stroke-width: 1; stroke-dasharray: none; stroke-linecap: butt; stroke-linejoin: miter; stroke-miterlimit: 10; fill: rgb(0,0,0); fill-rule: nonzero; opacity: 1;" transform=" matrix(1 0 0 1 0 0) " stroke-linecap="round"/>
	<polygon points="42.24,47.01 36.45,36.51 33.03,36.51 33.03,53.75 35.82,53.75 35.82,40.54 40.9,49.69 43.51,49.69 48.6,40.54 48.6,53.75 51.38,53.75 51.38,36.51 48.05,36.51 " style="stroke: none; stroke-width: 1; stroke-dasharray: none; stroke-linecap: butt; stroke-linejoin: miter; stroke-miterlimit: 10; fill: rgb(0,0,0); fill-rule: nonzero; opacity: 1;" transform="  matrix(1 0 0 1 0 0) "/>
	<path d="M 63.308 41.471 c -0.883 -0.579 -1.936 -0.868 -3.159 -0.868 c -1.231 0 -2.321 0.287 -3.269 0.862 c -0.948 0.575 -1.689 1.371 -2.223 2.389 c -0.534 1.018 -0.8 2.188 -0.8 3.51 c 0 1.305 0.273 2.463 0.819 3.473 c 0.546 1.01 1.307 1.8 2.284 2.371 c 0.977 0.57 2.11 0.856 3.399 0.856 c 2.134 0 3.936 -0.673 5.406 -2.02 l -1.478 -1.81 c -0.526 0.501 -1.088 0.874 -1.687 1.121 c -0.599 0.246 -1.314 0.369 -2.143 0.369 c -1.034 0 -1.89 -0.302 -2.567 -0.905 c -0.677 -0.603 -1.102 -1.43 -1.275 -2.481 h 9.445 v -0.763 c 0 -1.404 -0.238 -2.627 -0.714 -3.67 C 64.87 42.861 64.191 42.05 63.308 41.471 z M 56.616 46.304 c 0.164 -1.026 0.556 -1.843 1.176 -2.451 c 0.62 -0.608 1.389 -0.911 2.309 -0.911 c 0.944 0 1.707 0.298 2.29 0.893 c 0.583 0.595 0.915 1.418 0.997 2.469 H 56.616 z" style="stroke: none; stroke-width: 1; stroke-dasharray: none; stroke-linecap: butt; stroke-linejoin: miter; stroke-miterlimit: 10; fill: rgb(0,0,0); fill-rule: nonzero; opacity: 1;" transform=" matrix(1 0 0 1 0 0) " stroke-linecap="round"/>
	<path d="M 72.119 37.143 h -2.684 v 3.768 h -2.561 v 2.278 h 2.561 v 6.095 c 0 3.169 1.449 4.753 4.347 4.753 c 0.402 0.001 0.803 -0.028 1.201 -0.086 c 0.348 -0.05 0.691 -0.124 1.028 -0.222 v -2.253 c -0.296 0.049 -0.566 0.088 -0.813 0.117 c -0.246 0.029 -0.546 0.043 -0.899 0.043 c -0.797 0 -1.359 -0.205 -1.687 -0.616 c -0.328 -0.411 -0.493 -1.096 -0.493 -2.056 v -5.775 h 3.891 v -2.278 h -3.891 V 37.143 z" style="stroke: none; stroke-width: 1; stroke-dasharray: none; stroke-linecap: butt; stroke-linejoin: miter; stroke-miterlimit: 10; fill: rgb(0,0,0); fill-rule: nonzero; opacity: 1;" transform=" matrix(1 0 0 1 0 0) " stroke-linecap="round"/>
	<path d="M 87.365 40.911 v 1.65 c -0.452 -0.617 -1.048 -1.114 -1.736 -1.447 c -0.698 -0.341 -1.486 -0.511 -2.364 -0.511 c -1.166 0 -2.198 0.288 -3.097 0.862 c -0.899 0.575 -1.603 1.367 -2.112 2.377 c -0.509 1.01 -0.764 2.172 -0.764 3.485 c 0 1.305 0.25 2.465 0.751 3.479 c 0.501 1.014 1.188 1.81 2.063 2.389 c 0.874 0.579 1.878 0.868 3.011 0.868 c 0.919 0 1.74 -0.183 2.463 -0.548 c 0.722 -0.365 1.318 -0.885 1.786 -1.558 v 1.798 H 90 V 40.911 H 87.365 z M 87.316 49.26 c -0.287 0.723 -0.755 1.297 -1.404 1.724 c -0.649 0.427 -1.388 0.64 -2.217 0.64 c -1.125 0 -2.016 -0.386 -2.672 -1.158 c -0.657 -0.772 -0.985 -1.818 -0.985 -3.14 c 0 -1.314 0.341 -2.356 1.022 -3.128 c 0.681 -0.772 1.597 -1.158 2.746 -1.158 c 0.813 0 1.529 0.211 2.149 0.634 c 0.62 0.423 1.073 1 1.361 1.73 V 49.26 z" style="stroke: none; stroke-width: 1; stroke-dasharray: none; stroke-linecap: butt; stroke-linejoin: miter; stroke-miterlimit: 10; fill: rgb(0,0,0); fill-rule: nonzero; opacity: 1;" transform=" matrix(1 0 0 1 0 0) " stroke-linecap="round"/>
</g>
</svg>
